HIERARCHY
ROOT Hips
{
 OFFSET 0.000000 0.000000 0.000000
 CHANNELS 6 Xposition Yposition Zposition Yrotation Xrotation Zrotation
 JOINT Chest
 {
  OFFSET 0.000000 9.585900 0.002600
  CHANNELS 3 Yrotation Xrotation Zrotation
  JOINT Chest2
  {
   OFFSET 0.000000 9.601200 -0.005300
   CHANNELS 3 Yrotation Xrotation Zrotation
   JOINT Chest3
   {
    OFFSET 0.000000 9.561800 0.000000
    CHANNELS 3 Yrotation Xrotation Zrotation
    JOINT Chest4
    {
     OFFSET 0.000000 9.552100 0.000000
     CHANNELS 3 Yrotation Xrotation Zrotation
     JOINT Neck
     {
      OFFSET 0.000000 14.453000 0.000000
      CHANNELS 3 Yrotation Xrotation Zrotation
      JOINT Head
      {
       OFFSET 0.000000 8.936500 -0.011300
       CHANNELS 3 Yrotation Xrotation Zrotation
       End Site
       {
        OFFSET 0.000000 17.073600 -0.006000
       }
      }
     }
     JOINT RightCollar
     {
      OFFSET -2.921100 9.558500 0.000000
      CHANNELS 3 Yrotation Xrotation Zrotation
      JOINT RightShoulder
      {
       OFFSET -13.519700 0.000000 0.000000
       CHANNELS 3 Yrotation Xrotation Zrotation
       JOINT RightElbow
       {
        OFFSET 0.000000 -29.696600 0.000000
        CHANNELS 3 Yrotation Xrotation Zrotation
        JOINT RightWrist
        {
         OFFSET 0.000000 -24.004700 0.000000
         CHANNELS 3 Yrotation Xrotation Zrotation
         End Site
         {
          OFFSET 0.000000 -17.728500 0.000000
         }
        }
       }
      }
     }
     JOINT LeftCollar
     {
      OFFSET 2.921100 9.558500 0.000000
      CHANNELS 3 Yrotation Xrotation Zrotation
      JOINT LeftShoulder
      {
       OFFSET 13.519700 0.000000 0.000000
       CHANNELS 3 Yrotation Xrotation Zrotation
       JOINT LeftElbow
       {
        OFFSET 0.000000 -29.696600 0.000000
        CHANNELS 3 Yrotation Xrotation Zrotation
        JOINT LeftWrist
        {
         OFFSET 0.000000 -24.004700 0.000000
         CHANNELS 3 Yrotation Xrotation Zrotation
         End Site
         {
          OFFSET 0.000000 -17.728500 0.000000
         }
        }
       }
      }
     }
    }
   }
  }
 }
 JOINT RightHip
 {
  OFFSET -7.771700 -0.012900 -0.001300
  CHANNELS 3 Yrotation Xrotation Zrotation
  JOINT RightKnee
  {
   OFFSET 0.000000 -40.869800 0.001200
   CHANNELS 3 Yrotation Xrotation Zrotation
   JOINT RightAnkle
   {
    OFFSET 0.000000 -39.717900 0.002100
    CHANNELS 3 Yrotation Xrotation Zrotation
    JOINT RightToe
    {
     OFFSET 0.000000 -4.965400 11.033500
     CHANNELS 3 Yrotation Xrotation Zrotation
     End Site
     {
      OFFSET 0.000000 -1.423100 5.872300
     }
    }
   }
  }
 }
 JOINT LeftHip
 {
  OFFSET 7.771700 -0.012900 -0.001300
  CHANNELS 3 Yrotation Xrotation Zrotation
  JOINT LeftKnee
  {
   OFFSET 0.000000 -40.869800 0.001200
   CHANNELS 3 Yrotation Xrotation Zrotation
   JOINT LeftAnkle
   {
    OFFSET 0.000000 -39.717900 0.002100
    CHANNELS 3 Yrotation Xrotation Zrotation
    JOINT LeftToe
    {
     OFFSET 0.000000 -4.965400 11.033500
     CHANNELS 3 Yrotation Xrotation Zrotation
     End Site
     {
      OFFSET 0.000000 -1.423100 5.872300
     }
    }
   }
  }
 }
}
MOTION
Frames: 11
Frame Time: 0.008333
-61.124727 44.670859 19.538524 173.620130 -24.290727 -2.982239 5.141529 15.965305 5.446922 0.456974 1.740099 0.509796 0.728996 2.893540 0.859381 4.255583 14.138460 4.689696 1.838202 7.436178 -7.559863 3.867153 -17.878159 -8.989272 15.146803 -1.526498 -7.733355 34.024939 -38.985596 -34.729898 -123.510334 -70.871481 144.446495 -7.435153 -3.579663 -24.036781 -19.312360 -8.488655 4.043692 2.769503 -52.231172 38.309412 103.932343 -59.327324 -87.861926 26.385825 -8.971703 16.159538 -3.018771 -64.949815 10.978336 -141.949846 68.717693 -138.361713 -7.711839 -24.320374 5.639749 -0.261949 0.070729 0.005505 3.617644 -55.514108 2.250540 174.873299 61.213640 175.854711 -1.135390 -39.152153 2.921778 0.024547 0.012537 0.036611
-61.131285 44.667791 19.521252 173.695090 -24.385257 -3.055013 5.009257 16.049463 5.465100 0.448991 1.748572 0.515764 0.736137 2.907112 0.866777 4.198689 14.168903 4.715120 1.835004 7.434821 -7.571308 3.928472 -17.887439 -9.041880 14.939561 -1.491619 -7.583398 32.762744 -38.442240 -33.877279 -127.279299 -70.853231 148.400895 -7.071165 -3.993252 -24.554673 -19.071072 -8.332339 3.883869 3.214026 -51.545184 38.042472 106.222117 -60.508489 -91.323239 26.268032 -8.574979 16.659286 -3.099752 -64.850872 11.047168 -142.140752 68.742098 -138.539247 -7.887596 -24.322291 5.661286 -0.195643 0.053756 0.020461 3.560319 -55.426440 2.275575 174.929833 61.183541 175.934696 -1.095949 -39.178594 2.928691 0.021472 0.010213 0.036524
-61.132724 44.663416 19.502891 173.774954 -24.474461 -3.149276 4.880858 16.129361 5.500011 0.440062 1.757342 0.521313 0.781758 2.916728 0.874581 4.095877 14.204086 4.739539 1.836955 7.432996 -7.584395 3.996483 -17.899870 -9.094350 14.725838 -1.446290 -7.431931 31.518135 -37.880637 -33.042343 -130.800523 -70.694360 152.100386 -6.741367 -4.351647 -25.002410 -18.829774 -8.167902 3.719100 3.756190 -50.819376 37.709358 108.830012 -61.622652 -95.186445 26.148960 -8.176315 17.071171 -3.156921 -64.758098 11.120358 -142.331654 68.751818 -138.689941 -8.071492 -24.344877 5.691564 -0.125777 0.051586 0.046892 3.473372 -55.348608 2.325795 174.910533 61.143577 175.960138 -1.078584 -39.208329 2.919934 0.019966 0.005701 0.033613
-61.136585 44.656576 19.484744 173.842127 -24.542355 -3.211015 4.770533 16.193083 5.510023 0.432373 1.764414 0.525502 0.809924 2.924229 0.881903 3.989443 14.240079 4.761993 1.868209 7.426910 -7.609026 4.039609 -17.906334 -9.133279 14.514165 -1.390873 -7.284537 30.261701 -37.310256 -32.207231 -134.009649 -70.419150 155.492410 -6.443636 -4.635226 -25.377819 -18.622500 -8.020968 3.537421 4.351063 -50.002717 37.360893 111.837311 -62.631322 -99.496099 26.042088 -7.780428 17.411354 -3.157941 -64.687975 11.131763 -142.637012 68.775192 -138.959984 -8.227427 -24.410898 5.736880 -0.123874 0.072274 0.055395 3.439335 -55.291391 2.321292 174.887023 61.108507 175.978815 -1.061022 -39.230903 2.915273 0.016238 -0.000402 0.028841
-61.139814 44.647548 19.467418 173.895738 -24.586731 -3.255705 4.665905 16.236131 5.505252 0.424433 1.771296 0.529716 0.801429 2.932334 0.889208 3.916539 14.275039 4.782461 1.901852 7.421628 -7.635100 4.085934 -17.911793 -9.174533 14.300652 -1.329291 -7.147583 28.984969 -36.735052 -31.362617 -136.847474 -70.050522 158.531370 -6.183571 -4.839219 -25.699320 -18.456397 -7.885596 3.329321 4.954751 -49.094998 37.036660 115.266750 -63.498641 -104.251770 25.948508 -7.404093 17.707317 -3.138542 -64.637502 11.131844 -143.039008 68.813590 -139.327280 -8.430923 -24.517094 5.826129 -0.093689 0.112749 0.016196 3.436141 -55.258956 2.299679 174.880482 61.069665 176.011824 -1.045817 -39.258089 2.914545 0.009234 -0.006575 0.022731
-61.134003 44.639878 19.445445 173.953511 -24.649707 -3.334805 4.584709 16.297335 5.544638 0.399668 1.774771 0.531158 0.722649 2.950167 0.894294 3.909806 14.299010 4.799009 1.937179 7.420938 -7.660757 4.133957 -17.912112 -9.215401 14.077435 -1.262820 -7.019820 27.703532 -36.146906 -30.516267 -139.266977 -69.597930 161.170107 -5.963401 -4.971092 -25.999459 -18.304080 -7.721338 3.089364 5.533673 -48.147295 36.754448 119.059146 -64.207462 -109.389507 25.855943 -7.074207 17.975695 -3.184386 -64.564688 11.210598 -143.444820 68.852907 -139.687674 -8.628033 -24.635254 5.925872 -0.047790 0.135816 -0.028246 3.362981 -55.207170 2.359855 174.926094 61.030798 176.086807 -1.015480 -39.288484 2.910774 0.005158 -0.010627 0.020792
-61.125231 44.631122 19.423078 174.013927 -24.699669 -3.412246 4.532951 16.346306 5.595961 0.378961 1.774901 0.530485 0.650394 2.957516 0.896522 3.858441 14.323496 4.812481 1.973167 7.431065 -7.680572 4.180472 -17.900465 -9.248429 13.845892 -1.188334 -6.891430 26.431698 -35.534164 -29.682965 -141.221811 -69.068263 163.357236 -5.786189 -5.048059 -26.305850 -18.135513 -7.506732 2.821952 6.061445 -47.184880 36.516675 123.144128 -64.746919 -114.831476 25.749044 -6.800741 18.216482 -3.227737 -64.506906 11.286375 -143.811687 68.880001 -140.008316 -8.813044 -24.766344 6.040725 -0.023901 0.178581 -0.069782 3.251685 -55.166998 2.445358 174.937347 60.990325 176.117309 -1.010948 -39.319001 2.897129 0.003817 -0.013807 0.021727
-61.116795 44.621327 19.399450 174.062819 -24.742558 -3.460641 4.431645 16.384528 5.598996 0.354338 1.777780 0.527189 0.654114 2.964655 0.901438 3.785172 14.344637 4.821795 2.010606 7.454424 -7.688685 4.224684 -17.874189 -9.266610 13.611611 -1.107286 -6.753806 25.174151 -34.892556 -28.872982 -142.681408 -68.481365 165.072087 -5.662778 -5.093500 -26.637286 -17.932288 -7.253727 2.544255 6.531191 -46.190386 36.305449 127.463798 -65.099935 -120.500973 25.600234 -6.574418 18.416112 -3.266870 -64.459265 11.328632 -144.192895 68.899214 -140.368945 -8.953504 -24.919080 6.168880 -0.024842 0.221315 -0.124189 3.253008 -55.133800 2.431137 174.937615 60.953342 176.168258 -0.985906 -39.342867 2.887801 -0.001532 -0.021547 0.017876
-61.107103 44.612143 19.371353 174.157480 -24.800613 -3.511147 4.290441 16.442212 5.583297 0.327485 1.778373 0.521712 0.656703 2.970315 0.905965 3.711889 14.362327 4.824478 2.048481 7.486998 -7.682580 4.265060 -17.837784 -9.267070 13.373658 -1.024831 -6.606649 23.930630 -34.231224 -28.090367 -143.668897 -67.861251 166.347159 -5.602075 -5.124067 -27.007366 -17.699217 -6.990517 2.274892 6.972549 -45.133460 36.088092 131.959993 -65.252451 -126.321103 25.401697 -6.368368 18.545729 -3.310623 -64.395927 11.331653 -144.540773 68.898152 -140.698490 -9.068093 -25.114079 6.311591 -0.050575 0.315675 -0.206728 3.310063 -55.077797 2.329087 174.896070 60.918084 176.219494 -0.960203 -39.364810 2.876364 -0.005739 -0.034312 0.015088
-61.082375 44.602887 19.343986 174.249537 -24.857376 -3.629583 4.110618 16.489108 5.596861 0.380294 1.790409 0.541455 0.641663 2.973811 0.906718 3.638124 14.380463 4.820920 2.084336 7.521978 -7.663233 4.299244 -17.798792 -9.250822 13.124100 -0.940903 -6.456395 22.710973 -33.567037 -27.337845 -144.242601 -67.227862 167.233543 -5.612907 -5.141774 -27.413837 -17.461066 -6.740841 2.020269 7.435412 -44.002252 35.838007 136.553986 -65.195569 -132.204607 25.180894 -6.146204 18.566751 -3.374720 -64.345559 11.467903 -144.731649 68.833487 -140.819443 -9.255053 -25.284083 6.474977 0.029836 0.340111 -0.211726 3.147901 -55.033707 2.464387 174.954460 60.870043 176.308807 -0.929574 -39.401576 2.858002 -0.011752 -0.036887 0.012339
-61.064786 44.592860 19.313520 174.347679 -24.922164 -3.686904 4.003134 16.555544 5.600552 0.345308 1.789091 0.533130 0.626355 2.978443 0.906774 3.562124 14.402123 4.812824 2.117340 7.552513 -7.634351 4.327518 -17.764791 -9.222639 12.857049 -0.850507 -6.315334 21.525388 -32.915725 -26.612824 -144.453034 -66.590546 167.777340 -5.694263 -5.139692 -27.844610 -17.238788 -6.503646 1.772083 7.953565 -42.823331 35.542800 141.123480 -64.928986 -138.030441 24.950986 -5.879657 18.441684 -3.373655 -64.297458 11.483399 -144.940986 68.763251 -140.991262 -9.410847 -25.467346 6.640083 0.099684 0.357290 -0.210721 3.070680 -54.967702 2.489789 175.025404 60.832285 176.398317 -0.901024 -39.430659 2.841231 -0.016779 -0.045908 0.020319
